<svg id="Camada_1" data-name="Camada 1" xmlns="http://www.w3.org/2000/svg" viewBox="0 0 87.64 82"><title>ic-home</title><g id="ic-home"><path d="M86,41.94H1.82A1.82,1.82,0,0,1,.6,38.77L42.64.51a1.84,1.84,0,0,1,2.46,0L87,38.59a1.82,1.82,0,0,1-1,3.35ZM6.54,38.3H81.23l-37.35-34Z"/><path d="M72.58,27.37a1.83,1.83,0,0,1-1.83-1.82V9.15a1.83,1.83,0,0,1,3.65,0v16.4A1.83,1.83,0,0,1,72.58,27.37Z"/><path d="M20.18,82a1.83,1.83,0,0,1-1.82-1.66L14.72,40.28a1.8,1.8,0,0,1,.45-1.38,1.83,1.83,0,0,1,1.35-.6H71.17A1.81,1.81,0,0,1,73,40.11a.91.91,0,0,1,0,.17L69.35,80.36A1.83,1.83,0,0,1,67.53,82H27.45a1.81,1.81,0,0,1-1.82-1.82V51.05a1.81,1.81,0,0,1,1.82-1.82h16.4a1.82,1.82,0,0,1,1.82,1.82v16.4a1.83,1.83,0,0,1-3.65,0V52.87H29.27V78.38H65.85l3.32-36.44H18.54L22,80a1.82,1.82,0,0,1-1.64,2Z"/><path d="M63,52.87H52.06a1.82,1.82,0,0,1,0-3.64H63a1.82,1.82,0,1,1,0,3.64Z"/><path d="M43.88,31a7.73,7.73,0,0,1-8.14-7.29,8.18,8.18,0,0,1,16.27,0A7.75,7.75,0,0,1,43.88,31Zm0-10.93a4.16,4.16,0,0,0-4.5,3.64,4.59,4.59,0,0,0,9,0A4.13,4.13,0,0,0,43.88,20.08Z"/></g></svg>